<svg xmlns="http://www.w3.org/2000/svg" viewBox="0 0 737.33 580"><defs><style>.cls-1{fill:#fff;stroke:#000;stroke-miterlimit:10;stroke-width:11px;}.cls-2{font-size:55.52px;fill:#005540;font-family:MicrosoftSansSerif, Microsoft Sans Serif;}</style></defs><title>ubngiht</title><g id="Layer_3" data-name="Layer 3"><rect width="737.33" height="580"/></g><g id="Layer_2" data-name="Layer 2"><path class="cls-1" d="M320.78,141.76a169.9,169.9,0,1,0,93.17,312,49.31,49.31,0,0,1,62.66-74.32A170,170,0,0,0,320.78,141.76Zm-72,79.12a16,16,0,1,1-16,16A16,16,0,0,1,248.78,220.88Zm2.14,150.48a23.31,23.31,0,1,1,23.3-23.3A23.3,23.3,0,0,1,250.92,371.36Zm130.23-99.51A35.85,35.85,0,1,1,417,236,35.85,35.85,0,0,1,381.15,271.85Z" transform="translate(103.67 25)"/><text class="cls-2" transform="translate(246 124.51)">UB<tspan x="-95.58" y="66.62">NIGHT</tspan></text></g></svg>